<svg xmlns="http://www.w3.org/2000/svg" version="1.1" xmlns:xlink="http://www.w3.org/1999/xlink" xmlns:svgjs="http://svgjs.com/svgjs" width="1920" height="1080" preserveAspectRatio="none" viewBox="0 0 1920 1080"><g mask="url(&quot;#SvgjsMask2362&quot;)" fill="none"><rect width="1920" height="1080" x="0" y="0" fill="url(#SvgjsLinearGradient2363)"></rect><path d="M1.09 -13.32L66.04 24.18L66.04 99.18L1.09 136.68L-63.86 99.18L-63.86 24.18zM66.04 999.18L131 1036.68L131 1111.68L66.04 1149.18L1.09 1111.68L1.09 1036.68zM131 661.68L195.95 699.18L195.95 774.18L131 811.68L66.04 774.18L66.04 699.18zM585.67 99.18L650.63 136.68L650.63 211.68L585.67 249.18L520.72 211.68L520.72 136.68zM520.72 661.68L585.67 699.18L585.67 774.18L520.72 811.68L455.77 774.18L455.77 699.18zM520.72 1111.68L585.67 1149.18L585.67 1224.18L520.72 1261.68L455.77 1224.18L455.77 1149.18zM715.58 774.18L780.54 811.68L780.54 886.68L715.58 924.18L650.63 886.68L650.63 811.68zM715.58 999.18L780.54 1036.68L780.54 1111.68L715.58 1149.18L650.63 1111.68L650.63 1036.68zM780.53 661.68L845.49 699.18L845.49 774.18L780.53 811.68L715.58 774.18L715.58 699.18zM910.44 886.68L975.4 924.18L975.4 999.18L910.44 1036.68L845.49 999.18L845.49 924.18zM1040.35 436.68L1105.3 474.18L1105.3 549.18L1040.35 586.68L975.4 549.18L975.4 474.18zM1105.3 774.18L1170.26 811.68L1170.26 886.68L1105.3 924.18L1040.35 886.68L1040.35 811.68zM1235.21 549.18L1300.16 586.68L1300.16 661.68L1235.21 699.18L1170.26 661.68L1170.26 586.68zM1300.16 211.68L1365.12 249.18L1365.12 324.18L1300.16 361.68L1235.21 324.18L1235.21 249.18zM1365.12 324.18L1430.07 361.68L1430.07 436.68L1365.12 474.18L1300.16 436.68L1300.16 361.68zM1495.03 324.18L1559.98 361.68L1559.98 436.68L1495.03 474.18L1430.07 436.68L1430.07 361.68zM1430.07 661.68L1495.03 699.18L1495.03 774.18L1430.07 811.68L1365.12 774.18L1365.12 699.18zM1754.84 99.18L1819.79 136.68L1819.79 211.68L1754.84 249.18L1689.89 211.68L1689.89 136.68zM1754.84 999.18L1819.79 1036.68L1819.79 1111.68L1754.84 1149.18L1689.89 1111.68L1689.89 1036.68zM1819.79 211.68L1884.75 249.18L1884.75 324.18L1819.79 361.68L1754.84 324.18L1754.84 249.18zM1884.75 549.18L1949.7 586.68L1949.7 661.68L1884.75 699.18L1819.79 661.68L1819.79 586.68zM1819.79 886.68L1884.75 924.18L1884.75 999.18L1819.79 1036.68L1754.84 999.18L1754.84 924.18z" stroke="#03305d" stroke-width="2"></path><path d="M-6.41 -13.32 a7.5 7.5 0 1 0 15 0 a7.5 7.5 0 1 0 -15 0zM58.54 24.18 a7.5 7.5 0 1 0 15 0 a7.5 7.5 0 1 0 -15 0zM58.54 99.18 a7.5 7.5 0 1 0 15 0 a7.5 7.5 0 1 0 -15 0zM-6.41 136.68 a7.5 7.5 0 1 0 15 0 a7.5 7.5 0 1 0 -15 0zM-71.36 99.18 a7.5 7.5 0 1 0 15 0 a7.5 7.5 0 1 0 -15 0zM-71.36 24.18 a7.5 7.5 0 1 0 15 0 a7.5 7.5 0 1 0 -15 0zM58.54 999.18 a7.5 7.5 0 1 0 15 0 a7.5 7.5 0 1 0 -15 0zM123.5 1036.68 a7.5 7.5 0 1 0 15 0 a7.5 7.5 0 1 0 -15 0zM123.5 1111.68 a7.5 7.5 0 1 0 15 0 a7.5 7.5 0 1 0 -15 0zM58.54 1149.18 a7.5 7.5 0 1 0 15 0 a7.5 7.5 0 1 0 -15 0zM-6.41 1111.68 a7.5 7.5 0 1 0 15 0 a7.5 7.5 0 1 0 -15 0zM-6.41 1036.68 a7.5 7.5 0 1 0 15 0 a7.5 7.5 0 1 0 -15 0zM123.5 661.68 a7.5 7.5 0 1 0 15 0 a7.5 7.5 0 1 0 -15 0zM188.45 699.18 a7.5 7.5 0 1 0 15 0 a7.5 7.5 0 1 0 -15 0zM188.45 774.18 a7.5 7.5 0 1 0 15 0 a7.5 7.5 0 1 0 -15 0zM123.5 811.68 a7.5 7.5 0 1 0 15 0 a7.5 7.5 0 1 0 -15 0zM58.54 774.18 a7.5 7.5 0 1 0 15 0 a7.5 7.5 0 1 0 -15 0zM58.54 699.18 a7.5 7.5 0 1 0 15 0 a7.5 7.5 0 1 0 -15 0zM578.17 99.18 a7.5 7.5 0 1 0 15 0 a7.5 7.5 0 1 0 -15 0zM643.13 136.68 a7.5 7.5 0 1 0 15 0 a7.5 7.5 0 1 0 -15 0zM643.13 211.68 a7.5 7.5 0 1 0 15 0 a7.5 7.5 0 1 0 -15 0zM578.17 249.18 a7.5 7.5 0 1 0 15 0 a7.5 7.5 0 1 0 -15 0zM513.22 211.68 a7.5 7.5 0 1 0 15 0 a7.5 7.5 0 1 0 -15 0zM513.22 136.68 a7.5 7.5 0 1 0 15 0 a7.5 7.5 0 1 0 -15 0zM513.22 661.68 a7.5 7.5 0 1 0 15 0 a7.5 7.5 0 1 0 -15 0zM578.17 699.18 a7.5 7.5 0 1 0 15 0 a7.5 7.5 0 1 0 -15 0zM578.17 774.18 a7.5 7.5 0 1 0 15 0 a7.5 7.5 0 1 0 -15 0zM513.22 811.68 a7.5 7.5 0 1 0 15 0 a7.5 7.5 0 1 0 -15 0zM448.27 774.18 a7.5 7.5 0 1 0 15 0 a7.5 7.5 0 1 0 -15 0zM448.27 699.18 a7.5 7.5 0 1 0 15 0 a7.5 7.5 0 1 0 -15 0zM513.22 1111.68 a7.5 7.5 0 1 0 15 0 a7.5 7.5 0 1 0 -15 0zM578.17 1149.18 a7.5 7.5 0 1 0 15 0 a7.5 7.5 0 1 0 -15 0zM578.17 1224.18 a7.5 7.5 0 1 0 15 0 a7.5 7.5 0 1 0 -15 0zM513.22 1261.68 a7.5 7.5 0 1 0 15 0 a7.5 7.5 0 1 0 -15 0zM448.27 1224.18 a7.5 7.5 0 1 0 15 0 a7.5 7.5 0 1 0 -15 0zM448.27 1149.18 a7.5 7.5 0 1 0 15 0 a7.5 7.5 0 1 0 -15 0zM708.08 774.18 a7.5 7.5 0 1 0 15 0 a7.5 7.5 0 1 0 -15 0zM773.04 811.68 a7.5 7.5 0 1 0 15 0 a7.5 7.5 0 1 0 -15 0zM773.04 886.68 a7.5 7.5 0 1 0 15 0 a7.5 7.5 0 1 0 -15 0zM708.08 924.18 a7.5 7.5 0 1 0 15 0 a7.5 7.5 0 1 0 -15 0zM643.13 886.68 a7.5 7.5 0 1 0 15 0 a7.5 7.5 0 1 0 -15 0zM643.13 811.68 a7.5 7.5 0 1 0 15 0 a7.5 7.5 0 1 0 -15 0zM708.08 999.18 a7.5 7.5 0 1 0 15 0 a7.5 7.5 0 1 0 -15 0zM773.04 1036.68 a7.5 7.5 0 1 0 15 0 a7.5 7.5 0 1 0 -15 0zM773.04 1111.68 a7.5 7.5 0 1 0 15 0 a7.5 7.5 0 1 0 -15 0zM708.08 1149.18 a7.5 7.5 0 1 0 15 0 a7.5 7.5 0 1 0 -15 0zM643.13 1111.68 a7.5 7.5 0 1 0 15 0 a7.5 7.5 0 1 0 -15 0zM643.13 1036.68 a7.5 7.5 0 1 0 15 0 a7.5 7.5 0 1 0 -15 0zM773.03 661.68 a7.5 7.5 0 1 0 15 0 a7.5 7.5 0 1 0 -15 0zM837.99 699.18 a7.5 7.5 0 1 0 15 0 a7.5 7.5 0 1 0 -15 0zM837.99 774.18 a7.5 7.5 0 1 0 15 0 a7.5 7.5 0 1 0 -15 0zM773.03 811.68 a7.5 7.5 0 1 0 15 0 a7.5 7.5 0 1 0 -15 0zM708.08 699.18 a7.5 7.5 0 1 0 15 0 a7.5 7.5 0 1 0 -15 0zM902.94 886.68 a7.5 7.5 0 1 0 15 0 a7.5 7.5 0 1 0 -15 0zM967.9 924.18 a7.5 7.5 0 1 0 15 0 a7.5 7.5 0 1 0 -15 0zM967.9 999.18 a7.5 7.5 0 1 0 15 0 a7.5 7.5 0 1 0 -15 0zM902.94 1036.68 a7.5 7.5 0 1 0 15 0 a7.5 7.5 0 1 0 -15 0zM837.99 999.18 a7.5 7.5 0 1 0 15 0 a7.5 7.5 0 1 0 -15 0zM837.99 924.18 a7.5 7.5 0 1 0 15 0 a7.5 7.5 0 1 0 -15 0zM1032.85 436.68 a7.5 7.5 0 1 0 15 0 a7.5 7.5 0 1 0 -15 0zM1097.8 474.18 a7.5 7.5 0 1 0 15 0 a7.5 7.5 0 1 0 -15 0zM1097.8 549.18 a7.5 7.5 0 1 0 15 0 a7.5 7.5 0 1 0 -15 0zM1032.85 586.68 a7.5 7.5 0 1 0 15 0 a7.5 7.5 0 1 0 -15 0zM967.9 549.18 a7.5 7.5 0 1 0 15 0 a7.5 7.5 0 1 0 -15 0zM967.9 474.18 a7.5 7.5 0 1 0 15 0 a7.5 7.5 0 1 0 -15 0zM1097.8 774.18 a7.5 7.5 0 1 0 15 0 a7.5 7.5 0 1 0 -15 0zM1162.76 811.68 a7.5 7.5 0 1 0 15 0 a7.5 7.5 0 1 0 -15 0zM1162.76 886.68 a7.5 7.5 0 1 0 15 0 a7.5 7.5 0 1 0 -15 0zM1097.8 924.18 a7.5 7.5 0 1 0 15 0 a7.5 7.5 0 1 0 -15 0zM1032.85 886.68 a7.5 7.5 0 1 0 15 0 a7.5 7.5 0 1 0 -15 0zM1032.85 811.68 a7.5 7.5 0 1 0 15 0 a7.5 7.5 0 1 0 -15 0zM1227.71 549.18 a7.5 7.5 0 1 0 15 0 a7.5 7.5 0 1 0 -15 0zM1292.66 586.68 a7.5 7.5 0 1 0 15 0 a7.5 7.5 0 1 0 -15 0zM1292.66 661.68 a7.5 7.5 0 1 0 15 0 a7.5 7.5 0 1 0 -15 0zM1227.71 699.18 a7.5 7.5 0 1 0 15 0 a7.5 7.5 0 1 0 -15 0zM1162.76 661.68 a7.5 7.5 0 1 0 15 0 a7.5 7.5 0 1 0 -15 0zM1162.76 586.68 a7.5 7.5 0 1 0 15 0 a7.5 7.5 0 1 0 -15 0zM1292.66 211.68 a7.5 7.5 0 1 0 15 0 a7.5 7.5 0 1 0 -15 0zM1357.62 249.18 a7.5 7.5 0 1 0 15 0 a7.5 7.5 0 1 0 -15 0zM1357.62 324.18 a7.5 7.5 0 1 0 15 0 a7.5 7.5 0 1 0 -15 0zM1292.66 361.68 a7.5 7.5 0 1 0 15 0 a7.5 7.5 0 1 0 -15 0zM1227.71 324.18 a7.5 7.5 0 1 0 15 0 a7.5 7.5 0 1 0 -15 0zM1227.71 249.18 a7.5 7.5 0 1 0 15 0 a7.5 7.5 0 1 0 -15 0zM1422.57 361.68 a7.5 7.5 0 1 0 15 0 a7.5 7.5 0 1 0 -15 0zM1422.57 436.68 a7.5 7.5 0 1 0 15 0 a7.5 7.5 0 1 0 -15 0zM1357.62 474.18 a7.5 7.5 0 1 0 15 0 a7.5 7.5 0 1 0 -15 0zM1292.66 436.68 a7.5 7.5 0 1 0 15 0 a7.5 7.5 0 1 0 -15 0zM1487.53 324.18 a7.5 7.5 0 1 0 15 0 a7.5 7.5 0 1 0 -15 0zM1552.48 361.68 a7.5 7.5 0 1 0 15 0 a7.5 7.5 0 1 0 -15 0zM1552.48 436.68 a7.5 7.5 0 1 0 15 0 a7.5 7.5 0 1 0 -15 0zM1487.53 474.18 a7.5 7.5 0 1 0 15 0 a7.5 7.5 0 1 0 -15 0zM1422.57 661.68 a7.5 7.5 0 1 0 15 0 a7.5 7.5 0 1 0 -15 0zM1487.53 699.18 a7.5 7.5 0 1 0 15 0 a7.5 7.5 0 1 0 -15 0zM1487.53 774.18 a7.5 7.5 0 1 0 15 0 a7.5 7.5 0 1 0 -15 0zM1422.57 811.68 a7.5 7.5 0 1 0 15 0 a7.5 7.5 0 1 0 -15 0zM1357.62 774.18 a7.5 7.5 0 1 0 15 0 a7.5 7.5 0 1 0 -15 0zM1357.62 699.18 a7.5 7.5 0 1 0 15 0 a7.5 7.5 0 1 0 -15 0zM1747.34 99.18 a7.5 7.5 0 1 0 15 0 a7.5 7.5 0 1 0 -15 0zM1812.29 136.68 a7.5 7.5 0 1 0 15 0 a7.5 7.5 0 1 0 -15 0zM1812.29 211.68 a7.5 7.5 0 1 0 15 0 a7.5 7.5 0 1 0 -15 0zM1747.34 249.18 a7.5 7.5 0 1 0 15 0 a7.5 7.5 0 1 0 -15 0zM1682.39 211.68 a7.5 7.5 0 1 0 15 0 a7.5 7.5 0 1 0 -15 0zM1682.39 136.68 a7.5 7.5 0 1 0 15 0 a7.5 7.5 0 1 0 -15 0zM1747.34 999.18 a7.5 7.5 0 1 0 15 0 a7.5 7.5 0 1 0 -15 0zM1812.29 1036.68 a7.5 7.5 0 1 0 15 0 a7.5 7.5 0 1 0 -15 0zM1812.29 1111.68 a7.5 7.5 0 1 0 15 0 a7.5 7.5 0 1 0 -15 0zM1747.34 1149.18 a7.5 7.5 0 1 0 15 0 a7.5 7.5 0 1 0 -15 0zM1682.39 1111.68 a7.5 7.5 0 1 0 15 0 a7.5 7.5 0 1 0 -15 0zM1682.39 1036.68 a7.5 7.5 0 1 0 15 0 a7.5 7.5 0 1 0 -15 0zM1877.25 249.18 a7.5 7.5 0 1 0 15 0 a7.5 7.5 0 1 0 -15 0zM1877.25 324.18 a7.5 7.5 0 1 0 15 0 a7.5 7.5 0 1 0 -15 0zM1812.29 361.68 a7.5 7.5 0 1 0 15 0 a7.5 7.5 0 1 0 -15 0zM1747.34 324.18 a7.5 7.5 0 1 0 15 0 a7.5 7.5 0 1 0 -15 0zM1877.25 549.18 a7.5 7.5 0 1 0 15 0 a7.5 7.5 0 1 0 -15 0zM1942.2 586.68 a7.5 7.5 0 1 0 15 0 a7.5 7.5 0 1 0 -15 0zM1942.2 661.68 a7.5 7.5 0 1 0 15 0 a7.5 7.5 0 1 0 -15 0zM1877.25 699.18 a7.5 7.5 0 1 0 15 0 a7.5 7.5 0 1 0 -15 0zM1812.29 661.68 a7.5 7.5 0 1 0 15 0 a7.5 7.5 0 1 0 -15 0zM1812.29 586.68 a7.5 7.5 0 1 0 15 0 a7.5 7.5 0 1 0 -15 0zM1812.29 886.68 a7.5 7.5 0 1 0 15 0 a7.5 7.5 0 1 0 -15 0zM1877.25 924.18 a7.5 7.5 0 1 0 15 0 a7.5 7.5 0 1 0 -15 0zM1877.25 999.18 a7.5 7.5 0 1 0 15 0 a7.5 7.5 0 1 0 -15 0zM1747.34 924.18 a7.5 7.5 0 1 0 15 0 a7.5 7.5 0 1 0 -15 0z" fill="#03305d"></path><path d="M10.61 297.99L53.91 322.99L53.91 372.99L10.61 397.99L-32.69 372.99L-32.69 322.99zM53.91 522.99L97.22 547.99L97.22 597.99L53.91 622.99L10.61 597.99L10.61 547.99zM10.61 597.99L53.91 622.99L53.91 672.99L10.61 697.99L-32.69 672.99L-32.69 622.99zM53.91 672.99L97.22 697.99L97.22 747.99L53.91 772.99L10.61 747.99L10.61 697.99zM10.61 1047.99L53.91 1072.99L53.91 1122.99L10.61 1147.99L-32.69 1122.99L-32.69 1072.99zM97.22 -2.01L140.52 22.99L140.52 72.99L97.22 97.99L53.91 72.99L53.91 22.99zM140.52 72.99L183.82 97.99L183.82 147.99L140.52 172.99L97.22 147.99L97.22 97.99zM97.22 747.99L140.52 772.99L140.52 822.99L97.22 847.99L53.91 822.99L53.91 772.99zM183.82 297.99L227.12 322.99L227.12 372.99L183.82 397.99L140.52 372.99L140.52 322.99zM183.82 1047.99L227.12 1072.99L227.12 1122.99L183.82 1147.99L140.52 1122.99L140.52 1072.99zM313.73 72.99L357.03 97.99L357.03 147.99L313.73 172.99L270.43 147.99L270.43 97.99zM313.73 222.99L357.03 247.99L357.03 297.99L313.73 322.99L270.43 297.99L270.43 247.99zM357.03 297.99L400.33 322.99L400.33 372.99L357.03 397.99L313.73 372.99L313.73 322.99zM357.03 597.99L400.33 622.99L400.33 672.99L357.03 697.99L313.73 672.99L313.73 622.99zM357.03 747.99L400.33 772.99L400.33 822.99L357.03 847.99L313.73 822.99L313.73 772.99zM486.94 822.99L530.24 847.99L530.24 897.99L486.94 922.99L443.64 897.99L443.64 847.99zM443.64 1047.99L486.94 1072.99L486.94 1122.99L443.64 1147.99L400.33 1122.99L400.33 1072.99zM530.24 -2.01L573.54 22.99L573.54 72.99L530.24 97.99L486.94 72.99L486.94 22.99zM530.24 147.99L573.54 172.99L573.54 222.99L530.24 247.99L486.94 222.99L486.94 172.99zM573.54 372.99L616.85 397.99L616.85 447.99L573.54 472.99L530.24 447.99L530.24 397.99zM530.24 897.99L573.54 922.99L573.54 972.99L530.24 997.99L486.94 972.99L486.94 922.99zM616.85 597.99L660.15 622.99L660.15 672.99L616.85 697.99L573.54 672.99L573.54 622.99zM660.15 672.99L703.45 697.99L703.45 747.99L660.15 772.99L616.85 747.99L616.85 697.99zM746.75 222.99L790.06 247.99L790.06 297.99L746.75 322.99L703.45 297.99L703.45 247.99zM746.75 522.99L790.06 547.99L790.06 597.99L746.75 622.99L703.45 597.99L703.45 547.99zM703.45 597.99L746.75 622.99L746.75 672.99L703.45 697.99L660.15 672.99L660.15 622.99zM746.75 822.99L790.06 847.99L790.06 897.99L746.75 922.99L703.45 897.99L703.45 847.99zM746.75 972.99L790.06 997.99L790.06 1047.99L746.75 1072.99L703.45 1047.99L703.45 997.99zM833.36 372.99L876.66 397.99L876.66 447.99L833.36 472.99L790.06 447.99L790.06 397.99zM790.06 447.99L833.36 472.99L833.36 522.99L790.06 547.99L746.75 522.99L746.75 472.99zM833.36 522.99L876.66 547.99L876.66 597.99L833.36 622.99L790.06 597.99L790.06 547.99zM790.06 597.99L833.36 622.99L833.36 672.99L790.06 697.99L746.75 672.99L746.75 622.99zM790.06 747.99L833.36 772.99L833.36 822.99L790.06 847.99L746.75 822.99L746.75 772.99zM790.06 897.99L833.36 922.99L833.36 972.99L790.06 997.99L746.75 972.99L746.75 922.99zM919.96 72.99L963.27 97.99L963.27 147.99L919.96 172.99L876.66 147.99L876.66 97.99zM919.96 222.99L963.27 247.99L963.27 297.99L919.96 322.99L876.66 297.99L876.66 247.99zM876.66 447.99L919.96 472.99L919.96 522.99L876.66 547.99L833.36 522.99L833.36 472.99zM876.66 597.99L919.96 622.99L919.96 672.99L876.66 697.99L833.36 672.99L833.36 622.99zM919.96 822.99L963.27 847.99L963.27 897.99L919.96 922.99L876.66 897.99L876.66 847.99zM919.96 972.99L963.27 997.99L963.27 1047.99L919.96 1072.99L876.66 1047.99L876.66 997.99zM876.66 1047.99L919.96 1072.99L919.96 1122.99L876.66 1147.99L833.36 1122.99L833.36 1072.99zM963.27 147.99L1006.57 172.99L1006.57 222.99L963.27 247.99L919.96 222.99L919.96 172.99zM1006.57 222.99L1049.87 247.99L1049.87 297.99L1006.57 322.99L963.27 297.99L963.27 247.99zM1006.57 522.99L1049.87 547.99L1049.87 597.99L1006.57 622.99L963.27 597.99L963.27 547.99zM1006.57 822.99L1049.87 847.99L1049.87 897.99L1006.57 922.99L963.27 897.99L963.27 847.99zM963.27 897.99L1006.57 922.99L1006.57 972.99L963.27 997.99L919.96 972.99L919.96 922.99zM1049.87 297.99L1093.17 322.99L1093.17 372.99L1049.87 397.99L1006.57 372.99L1006.57 322.99zM1049.87 447.99L1093.17 472.99L1093.17 522.99L1049.87 547.99L1006.57 522.99L1006.57 472.99zM1049.87 897.99L1093.17 922.99L1093.17 972.99L1049.87 997.99L1006.57 972.99L1006.57 922.99zM1093.17 972.99L1136.47 997.99L1136.47 1047.99L1093.17 1072.99L1049.87 1047.99L1049.87 997.99zM1179.78 72.99L1223.08 97.99L1223.08 147.99L1179.78 172.99L1136.47 147.99L1136.47 97.99zM1136.47 297.99L1179.78 322.99L1179.78 372.99L1136.47 397.99L1093.17 372.99L1093.17 322.99zM1179.78 822.99L1223.08 847.99L1223.08 897.99L1179.78 922.99L1136.47 897.99L1136.47 847.99zM1136.47 897.99L1179.78 922.99L1179.78 972.99L1136.47 997.99L1093.17 972.99L1093.17 922.99zM1266.38 222.99L1309.68 247.99L1309.68 297.99L1266.38 322.99L1223.08 297.99L1223.08 247.99zM1266.38 372.99L1309.68 397.99L1309.68 447.99L1266.38 472.99L1223.08 447.99L1223.08 397.99zM1223.08 447.99L1266.38 472.99L1266.38 522.99L1223.08 547.99L1179.78 522.99L1179.78 472.99zM1223.08 597.99L1266.38 622.99L1266.38 672.99L1223.08 697.99L1179.78 672.99L1179.78 622.99zM1266.38 672.99L1309.68 697.99L1309.68 747.99L1266.38 772.99L1223.08 747.99L1223.08 697.99zM1223.08 747.99L1266.38 772.99L1266.38 822.99L1223.08 847.99L1179.78 822.99L1179.78 772.99zM1266.38 822.99L1309.68 847.99L1309.68 897.99L1266.38 922.99L1223.08 897.99L1223.08 847.99zM1309.68 147.99L1352.99 172.99L1352.99 222.99L1309.68 247.99L1266.38 222.99L1266.38 172.99zM1309.68 1047.99L1352.99 1072.99L1352.99 1122.99L1309.68 1147.99L1266.38 1122.99L1266.38 1072.99zM1439.59 522.99L1482.89 547.99L1482.89 597.99L1439.59 622.99L1396.29 597.99L1396.29 547.99zM1439.59 822.99L1482.89 847.99L1482.89 897.99L1439.59 922.99L1396.29 897.99L1396.29 847.99zM1482.89 297.99L1526.2 322.99L1526.2 372.99L1482.89 397.99L1439.59 372.99L1439.59 322.99zM1482.89 597.99L1526.2 622.99L1526.2 672.99L1482.89 697.99L1439.59 672.99L1439.59 622.99zM1482.89 747.99L1526.2 772.99L1526.2 822.99L1482.89 847.99L1439.59 822.99L1439.59 772.99zM1526.2 822.99L1569.5 847.99L1569.5 897.99L1526.2 922.99L1482.89 897.99L1482.89 847.99zM1482.89 897.99L1526.2 922.99L1526.2 972.99L1482.89 997.99L1439.59 972.99L1439.59 922.99zM1526.2 972.99L1569.5 997.99L1569.5 1047.99L1526.2 1072.99L1482.89 1047.99L1482.89 997.99zM1569.5 -2.01L1612.8 22.99L1612.8 72.99L1569.5 97.99L1526.2 72.99L1526.2 22.99zM1612.8 222.99L1656.11 247.99L1656.11 297.99L1612.8 322.99L1569.5 297.99L1569.5 247.99zM1612.8 822.99L1656.11 847.99L1656.11 897.99L1612.8 922.99L1569.5 897.99L1569.5 847.99zM1569.5 1047.99L1612.8 1072.99L1612.8 1122.99L1569.5 1147.99L1526.2 1122.99L1526.2 1072.99zM1699.41 222.99L1742.71 247.99L1742.71 297.99L1699.41 322.99L1656.11 297.99L1656.11 247.99zM1699.41 372.99L1742.71 397.99L1742.71 447.99L1699.41 472.99L1656.11 447.99L1656.11 397.99zM1656.11 597.99L1699.41 622.99L1699.41 672.99L1656.11 697.99L1612.8 672.99L1612.8 622.99zM1699.41 672.99L1742.71 697.99L1742.71 747.99L1699.41 772.99L1656.11 747.99L1656.11 697.99zM1656.11 1047.99L1699.41 1072.99L1699.41 1122.99L1656.11 1147.99L1612.8 1122.99L1612.8 1072.99zM1786.01 222.99L1829.32 247.99L1829.32 297.99L1786.01 322.99L1742.71 297.99L1742.71 247.99zM1786.01 522.99L1829.32 547.99L1829.32 597.99L1786.01 622.99L1742.71 597.99L1742.71 547.99zM1742.71 747.99L1786.01 772.99L1786.01 822.99L1742.71 847.99L1699.41 822.99L1699.41 772.99zM1742.71 897.99L1786.01 922.99L1786.01 972.99L1742.71 997.99L1699.41 972.99L1699.41 922.99zM1829.32 747.99L1872.62 772.99L1872.62 822.99L1829.32 847.99L1786.01 822.99L1786.01 772.99zM1915.92 297.99L1959.22 322.99L1959.22 372.99L1915.92 397.99L1872.62 372.99L1872.62 322.99zM1915.92 447.99L1959.22 472.99L1959.22 522.99L1915.92 547.99L1872.62 522.99L1872.62 472.99zM1915.92 1047.99L1959.22 1072.99L1959.22 1122.99L1915.92 1147.99L1872.62 1122.99L1872.62 1072.99z" stroke="rgba(6, 80, 156, 0.93)" stroke-width="2"></path></g><defs><mask id="SvgjsMask2362"><rect width="1920" height="1080" fill="#ffffff"></rect></mask><linearGradient x1="10.94%" y1="-19.44%" x2="89.06%" y2="119.44%" gradientUnits="userSpaceOnUse" id="SvgjsLinearGradient2363"><stop stop-color="#0e2a47" offset="0"></stop><stop stop-color="rgba(0, 7, 15, 1)" offset="1"></stop></linearGradient></defs></svg>