<svg id="visual" viewBox="0 0 1920 1080" width="1920" height="1080" xmlns="http://www.w3.org/2000/svg" xmlns:xlink="http://www.w3.org/1999/xlink" version="1.1"><rect x="0" y="0" width="1920" height="1080" fill="#002233"></rect><path d="M0 875L45.7 863.5C91.3 852 182.7 829 274.2 836C365.7 843 457.3 880 548.8 862.8C640.3 845.7 731.7 774.3 823 759.2C914.3 744 1005.7 785 1097 808.2C1188.3 831.3 1279.7 836.7 1371.2 840.3C1462.7 844 1554.3 846 1645.8 860C1737.3 874 1828.7 900 1874.3 913L1920 926L1920 1081L1874.3 1081C1828.7 1081 1737.3 1081 1645.8 1081C1554.3 1081 1462.7 1081 1371.2 1081C1279.7 1081 1188.3 1081 1097 1081C1005.7 1081 914.3 1081 823 1081C731.7 1081 640.3 1081 548.8 1081C457.3 1081 365.7 1081 274.2 1081C182.7 1081 91.3 1081 45.7 1081L0 1081Z" fill="#0066FF" stroke-linecap="round" stroke-linejoin="miter"></path></svg>