<svg id="visual" viewBox="0 0 1455 232" width="1455" height="232" xmlns="http://www.w3.org/2000/svg" xmlns:xlink="http://www.w3.org/1999/xlink" version="1.1"><rect x="0" y="0" width="1455" height="232" fill="#002233"></rect><path d="M0 173L18.7 176.5C37.3 180 74.7 187 112 182.7C149.3 178.3 186.7 162.7 224 163.2C261.3 163.7 298.7 180.3 336 186.8C373.3 193.3 410.7 189.7 448 182.5C485.3 175.3 522.7 164.7 560 169C597.3 173.3 634.7 192.7 671.8 194.2C709 195.7 746 179.3 783.2 174C820.3 168.7 857.7 174.3 895 171.5C932.3 168.7 969.7 157.3 1007 151.8C1044.3 146.3 1081.7 146.7 1119 152.8C1156.3 159 1193.7 171 1231 181.8C1268.3 192.7 1305.7 202.3 1343 194.5C1380.3 186.7 1417.7 161.3 1436.3 148.7L1455 136L1455 233L1436.3 233C1417.7 233 1380.3 233 1343 233C1305.7 233 1268.3 233 1231 233C1193.7 233 1156.3 233 1119 233C1081.7 233 1044.3 233 1007 233C969.7 233 932.3 233 895 233C857.7 233 820.3 233 783.2 233C746 233 709 233 671.8 233C634.7 233 597.3 233 560 233C522.7 233 485.3 233 448 233C410.7 233 373.3 233 336 233C298.7 233 261.3 233 224 233C186.7 233 149.3 233 112 233C74.7 233 37.3 233 18.7 233L0 233Z" fill="#0066FF" stroke-linecap="round" stroke-linejoin="miter"></path></svg>