<svg id="visual" viewBox="0 0 1920 1080" width="1920" height="1080" xmlns="http://www.w3.org/2000/svg" xmlns:xlink="http://www.w3.org/1999/xlink" version="1.1"><rect x="0" y="0" width="1920" height="1080" fill="#002233"></rect><path d="M0 815L29.2 821.8C58.3 828.7 116.7 842.3 174.8 850.2C233 858 291 860 349.2 853.8C407.3 847.7 465.7 833.3 523.8 834.3C582 835.3 640 851.7 698.2 854.3C756.3 857 814.7 846 872.8 854.8C931 863.7 989 892.3 1047.2 892.7C1105.3 893 1163.7 865 1221.8 863C1280 861 1338 885 1396.2 899C1454.3 913 1512.7 917 1570.8 907.5C1629 898 1687 875 1745.2 858.8C1803.3 842.7 1861.7 833.3 1890.8 828.7L1920 824L1920 1081L1890.8 1081C1861.7 1081 1803.3 1081 1745.2 1081C1687 1081 1629 1081 1570.8 1081C1512.7 1081 1454.3 1081 1396.2 1081C1338 1081 1280 1081 1221.8 1081C1163.7 1081 1105.3 1081 1047.2 1081C989 1081 931 1081 872.8 1081C814.7 1081 756.3 1081 698.2 1081C640 1081 582 1081 523.8 1081C465.7 1081 407.3 1081 349.2 1081C291 1081 233 1081 174.8 1081C116.7 1081 58.3 1081 29.2 1081L0 1081Z" fill="#0066FF" stroke-linecap="round" stroke-linejoin="miter"></path></svg>